<?xml version="1.0" encoding="UTF-8" standalone="no"?>
<svg
   xmlns:dc="http://purl.org/dc/elements/1.1/"
   xmlns:cc="http://creativecommons.org/ns#"
   xmlns:rdf="http://www.w3.org/1999/02/22-rdf-syntax-ns#"
   xmlns:svg="http://www.w3.org/2000/svg"
   xmlns="http://www.w3.org/2000/svg"
   xmlns:sodipodi="http://sodipodi.sourceforge.net/DTD/sodipodi-0.dtd"
   xmlns:inkscape="http://www.inkscape.org/namespaces/inkscape"
   width="5108.3623"
   height="1329.8309"
   viewBox="0 0 1351.5876 351.85109"
   version="1.1"
   id="svg8"
   inkscape:version="1.0.2 (e86c870879, 2021-01-15, custom)"
   sodipodi:docname="logo.svg">
  <defs
     id="defs2" />
  <sodipodi:namedview
     id="base"
     pagecolor="#ffffff"
     bordercolor="#666666"
     borderopacity="1.0"
     inkscape:pageopacity="0.0"
     inkscape:pageshadow="2"
     inkscape:zoom="0.35"
     inkscape:cx="2485.4668"
     inkscape:cy="179.05836"
     inkscape:document-units="mm"
     inkscape:current-layer="layer1"
     inkscape:document-rotation="0"
     showgrid="false"
     units="px"
     inkscape:window-width="3840"
     inkscape:window-height="2066"
     inkscape:window-x="2869"
     inkscape:window-y="-11"
     inkscape:window-maximized="1" />
  <metadata
     id="metadata5">
    <rdf:RDF>
      <cc:Work
         rdf:about="">
        <dc:format>image/svg+xml</dc:format>
        <dc:type
           rdf:resource="http://purl.org/dc/dcmitype/StillImage" />
        <dc:title></dc:title>
      </cc:Work>
    </rdf:RDF>
  </metadata>
  <g
     inkscape:label="Слой 1"
     inkscape:groupmode="layer"
     id="layer1"
     transform="translate(551.77975,-100.79081)">
    <path
       d="m -143.62088,178.24136 1.47002,5.52332 h -4.18125 v 4.10417 h 102.572627 v -4.10417 h -4.178736 l 1.467465,-5.52332 c -6.22571,-0.32874 -14.612807,-5.28186 -17.536726,-14.401 1.336142,-0.33467 2.331694,-1.53694 2.331694,-2.97729 0,-1.69793 -1.377669,-3.07557 -3.078969,-3.07557 -1.700459,0 -3.075586,1.37764 -3.075586,3.07557 0,1.22261 0.717648,2.26898 1.746209,2.76464 -5.102217,8.91918 -17.665502,15.05845 -28.960402,15.05845 -11.298296,0 -23.860726,-6.13927 -28.962956,-15.05845 1.03112,-0.49566 1.74536,-1.54203 1.74536,-2.76464 0,-1.69793 -1.37513,-3.07557 -3.07559,-3.07557 -1.70046,0 -3.07896,1.37764 -3.07896,3.07557 0,1.44035 0.99555,2.64262 2.3317,2.97729 -2.92055,9.11914 -11.31018,14.07226 -17.5359,14.401 z m 92.421533,-16.89364 c -2.516371,-0.76256 -3.541574,-2.86378 -3.245868,-4.39986 -3.644086,1.23106 -4.441382,7.41866 -0.338073,9.6512 3.763557,2.05633 8.65315,1.32088 12.446359,-5.35896 l 0.737968,0.34061 c -2.662953,4.08296 -5.552999,5.72074 -6.384143,7.73554 -1.016735,2.45369 0.125372,6.56971 1.682658,7.5737 l 21.003739,-45.32452 c -5.242873,1.27346 -12.299778,5.4276 -13.725716,10.3358 -1.42848,4.90484 2.13087,10.12317 -0.866747,16.59797 l -0.926915,-0.43041 c 3.076426,-7.75928 0.637135,-13.56729 -5.466559,-17.18681 -6.450236,-3.81694 -14.699246,2.61551 -8.670926,10.41038 1.512375,-3.5238 5.003953,-3.96014 7.391544,-2.29271 2.202889,1.54879 3.72119,4.18211 3.022208,7.34411 l -1.303108,-0.60409 c -0.0033,-0.003 -0.0059,-0.009 -0.01196,-0.0119 -0.879461,-0.40923 -1.928392,-0.0262 -2.33762,0.85235 -0.409226,0.88793 -0.0271,1.93345 0.85744,2.34609 l 1.303108,0.6041 c -1.380213,1.70638 -3.34164,2.36724 -5.167497,1.81739 z m -90.909153,7.96853 c -0.83117,-2.0148 -3.71864,-3.65258 -6.385,-7.73554 l 0.74137,-0.34061 c 3.7932,6.67984 8.67686,7.41529 12.44295,5.35896 4.10415,-2.23254 3.30604,-8.42014 -0.33721,-9.6512 0.29568,1.53608 -0.7295,3.6373 -3.24673,4.39986 -1.82586,0.54985 -3.7839,-0.11101 -5.16748,-1.8174 l 1.30647,-0.60409 c 0.88116,-0.41264 1.26412,-1.45816 0.8549,-2.3461 -0.41007,-0.87861 -1.45899,-1.26157 -2.34101,-0.85234 -0.003,0.003 -0.006,0.01 -0.009,0.0119 l -1.30308,0.60411 c -0.69984,-3.162 0.81592,-5.79533 3.02473,-7.34412 2.38507,-1.66742 5.87919,-1.23109 7.38816,2.29272 6.02916,-7.79488 -2.22066,-14.22732 -8.66752,-10.41038 -6.10372,3.61952 -8.54552,9.42753 -5.46996,17.1868 l -0.92352,0.43042 c -3.00102,-6.47481 0.56174,-11.69314 -0.86676,-16.59797 -1.42849,-4.90821 -8.4862,-9.06235 -13.72572,-10.3358 l 21.00374,45.32452 c 1.5539,-1.00399 2.69601,-5.12002 1.68014,-7.5737 z m 22.16281,-20.34033 c -0.15251,-5.12257 3.84405,-7.62202 7.67875,-6.93403 3.55346,0.63375 6.87134,2.97985 7.80419,7.20939 h -1.9216 c -0.01,0 -0.0127,-0.006 -0.0186,-0.006 -1.30308,0 -2.35794,1.05482 -2.35794,2.35201 0,1.30309 1.05486,2.35794 2.35794,2.35794 h 1.92244 c -0.72017,2.85782 -2.7265,4.75909 -5.25221,5.1175 -3.47886,0.4931 -5.90881,-1.48527 -6.41718,-3.51533 -3.72968,3.54498 -1.21582,11.50759 5.02173,11.90836 5.72415,0.38295 11.238156,-3.26368 12.090516,-13.51053 h 1.09128 c -0.93877,6.45616 -3.521236,10.06976 -3.401786,12.98182 0.14319,3.55343 3.846586,7.90585 6.303676,8.25237 2.45368,-0.34652 6.15453,-4.69894 6.30111,-8.25237 0.12201,-2.91206 -2.46299,-6.52566 -3.40178,-12.98182 h 1.09129 c 0.84811,10.24685 6.36637,13.89348 12.08965,13.51053 6.238426,-0.40077 8.754796,-8.36338 5.02173,-11.90836 -0.508356,2.03006 -2.93493,4.00843 -6.41718,3.51533 -2.5257,-0.35841 -4.5312,-2.25968 -5.25136,-5.1175 h 1.92498 c 1.2997,0 2.35794,-1.05485 2.35794,-2.35794 0,-1.29719 -1.05824,-2.35201 -2.35794,-2.35201 -0.007,0 -0.0153,0.006 -0.0211,0.006 h -1.91906 c 0.92946,-4.22954 4.25076,-6.57564 7.80164,-7.20939 3.83133,-0.68799 7.827908,1.81146 7.681326,6.93403 11.69906,-6.06728 5.305584,-18.51616 -4.66845,-17.50621 -9.451256,0.95654 -15.674426,6.63239 -16.305636,17.78157 h -1.36579 c 0,-9.54106 7.25767,-13.87484 8.28542,-20.63347 1.02518,-6.76037 -5.20053,-15.77526 -10.84671,-20.26748 -5.646196,4.49222 -11.877826,13.50711 -10.846696,20.26748 1.02517,6.75863 8.282006,11.09241 8.282006,20.63347 h -1.36579 c -0.63037,-11.14918 -6.856916,-16.82503 -16.304796,-17.78157 -9.974,-1.00995 -16.36494,11.43893 -4.66588,17.50621 z m 853.50332,154.4906 c 0,5.35981 -1.19889,9.21826 -3.5992,11.57025 -2.4003,2.35288 -6.18418,3.52718 -11.3576,3.52718 3.85508,-2.82138 5.78599,-6.96113 5.78599,-12.41584 v -67.03066 c 0,-9.40635 -3.9508,-16.17939 -11.8541,-20.31915 1.31495,-0.18808 3.05524,-0.28128 5.22171,-0.28128 4.70148,0 8.51247,1.61997 11.42962,4.86671 2.91459,3.24586 4.37358,7.88126 4.37358,13.89857 z m 24.90709,13.5461 c -2.4935,-0.84559 -4.18463,-2.3732 -5.07851,-4.58458 -0.89725,-2.2122 -1.34208,-5.47925 -1.34208,-9.8105 v -102.0219 h -5.78682 l -42.19218,14.53231 v 4.51594 c 4.98531,1.692 8.84123,4.28377 11.57028,7.76266 2.72905,3.47886 4.09229,7.24496 4.09229,11.28897 v 64.771 c 0,5.55043 -1.15398,9.40635 -3.456,11.57025 -2.3071,2.16477 -6.37483,3.34164 -12.20657,3.52718 v 7.76266 h 65.9004 v -7.76266 c -5.17681,-0.18554 -9.00814,-0.70493 -11.50081,-1.55133 z m -34.2211,-176.67459 c 3.0129,-2.6333 7.2899,-3.94826 12.84371,-3.94826 -5.83425,3.94826 -8.75141,8.98188 -8.75141,15.0966 0,3.29418 0.70493,5.9995 2.11902,8.11512 1.41071,2.11647 3.61952,4.5405 6.63239,7.26617 -5.73851,-0.28046 -10.0672,-1.85551 -12.98434,-4.7286 -2.91715,-2.86632 -4.37529,-6.50956 -4.37529,-10.93315 0,-4.60911 1.50643,-8.23201 4.51592,-10.86788 z m 10.44341,31.04641 c 3.57463,0 6.91625,-0.89388 10.01894,-2.68163 3.10608,-1.78686 5.55043,-4.2109 7.33816,-7.26869 1.78436,-3.05439 2.68076,-6.36974 2.68076,-9.94775 0,-3.57461 -0.8964,-6.86539 -2.68076,-9.87827 -1.78773,-3.00949 -4.23208,-5.38269 -7.33816,-7.12552 -3.10269,-1.73944 -6.44431,-2.6096 -10.01894,-2.6096 -3.48225,0 -6.75187,0.87016 -9.80711,2.6096 -3.06033,1.74283 -5.45723,4.14227 -7.19667,7.19754 -1.74028,3.05779 -2.60958,6.32738 -2.60958,9.80625 0,5.36234 1.92499,10.01977 5.78343,13.97058 3.85592,3.95164 8.46758,5.92749 13.82993,5.92749 z M 654.67541,296.8341 c 0,7.24583 -0.80065,12.67681 -2.4003,16.29887 -1.59879,3.62292 -4.84466,5.43098 -9.7351,5.43098 h -2.68074 c 1.78434,-1.88008 2.98576,-3.45516 3.59833,-4.72859 0.61005,-1.27005 0.98621,-2.58501 1.13025,-3.94826 0.13728,-1.36325 0.20927,-3.50346 0.20927,-6.42058 v -69.56821 c 0,-6.67988 -1.13022,-11.9702 -3.38652,-15.87693 -2.25966,-3.90338 -5.92746,-6.88998 -11.00852,-8.96071 9.0327,0.37958 15.33298,2.68076 18.91099,6.91625 3.57461,4.23209 5.36234,10.39511 5.36234,18.48396 z m -85.9391,6.34859 c 0,9.40974 -4.60912,14.5357 -13.82993,15.38126 2.06819,-2.25626 3.40771,-4.32528 4.02028,-6.2079 0.61002,-1.88348 0.91761,-4.93789 0.91761,-9.17336 v -64.771 c 0,-8.84124 -4.23211,-15.1898 -12.6997,-19.04824 0.3762,0 1.17771,-0.0932 2.39947,-0.28383 1.22259,-0.18557 2.06902,-0.28132 2.53841,-0.28132 4.42359,0 8.30321,1.67081 11.64482,5.00991 3.33824,3.33823 5.00904,7.36106 5.00904,12.06337 z m 104.4256,1.41067 v -64.34649 c 0,-26.43388 -13.31562,-39.65123 -39.93504,-39.65123 -9.31401,0 -17.33593,1.59877 -24.06152,4.79384 -6.72814,3.20182 -14.03923,7.8584 -21.94505,13.97397 v -18.76781 h -5.36237 l -44.59249,14.11037 v 4.65744 c 6.30368,1.97244 10.86789,4.86584 13.69014,8.67684 2.82395,3.81102 4.23209,8.82006 4.23209,15.02883 V 305.583 c 0,5.55043 -1.55133,9.09879 -4.65403,10.65267 -3.10524,1.55388 -7.52882,2.32828 -13.2682,2.32828 v 7.76266 h 68.16091 v -7.76266 c -4.51678,-0.18554 -7.97448,-0.56173 -10.37479,-1.12939 -2.39436,-0.5626 -4.30156,-1.97585 -5.71481,-4.23295 -1.40814,-2.25967 -2.11645,-5.50217 -2.11645,-9.73509 v -74.50864 c 6.20791,-5.64363 11.87781,-9.85456 17.00716,-12.62849 5.12343,-2.7765 10.36887,-4.16348 15.73122,-4.16348 4.32782,0 7.99564,0.89385 11.00851,2.68075 3.0095,1.78774 5.29035,4.39985 6.84424,7.83129 1.55133,3.43736 2.32828,7.64572 2.32828,12.6285 v 68.16007 c 0,6.20877 -1.38952,10.27902 -4.16007,12.20403 -2.77988,1.93091 -7.17973,2.8934 -13.19618,2.8934 v 7.76266 h 68.01686 v -7.76266 c -5.92747,0 -10.34767,-0.79472 -13.26566,-2.39692 -2.91713,-1.59878 -4.37275,-5.45809 -4.37275,-11.57367 z m -183.59419,-1.12684 c 0,5.35981 -1.19549,9.21826 -3.59579,11.57025 -2.40032,2.35288 -6.18675,3.52718 -11.36099,3.52718 3.85589,-2.82138 5.78683,-6.96113 5.78683,-12.41584 v -67.03066 c 0,-9.40635 -3.95166,-16.17939 -11.85411,-20.31915 1.3175,-0.18808 3.05778,-0.28128 5.22169,-0.28128 4.70148,0 8.5125,1.61997 11.42962,4.86671 2.91378,3.24586 4.37275,7.88126 4.37275,13.89857 z m 19.82859,8.96152 c -0.89642,-2.2122 -1.33868,-5.47925 -1.33868,-9.8105 v -102.0219 h -5.78683 l -42.19557,14.53231 v 4.51594 c 4.98616,1.692 8.8446,4.28377 11.57364,7.76266 2.72567,3.47886 4.09233,7.24496 4.09233,11.28897 v 64.771 c 0,5.55043 -1.15144,9.40635 -3.45855,11.57025 -2.30458,2.16477 -6.3757,3.34164 -12.20742,3.52718 v 7.76266 h 65.90378 v -7.76266 c -5.1768,-0.18554 -9.01154,-0.70493 -11.50418,-1.55133 -2.49267,-0.84559 -4.18466,-2.3732 -5.07852,-4.58458 z m -29.1392,-172.09001 c 3.00949,-2.6333 7.28988,-3.94826 12.84034,-3.94826 -5.83429,3.94826 -8.74804,8.98188 -8.74804,15.0966 0,3.29418 0.70832,5.9995 2.11564,8.11512 1.41068,2.11647 3.61952,4.5405 6.6324,7.26617 -5.73855,-0.28046 -10.06638,-1.85551 -12.98354,-4.7286 -2.91459,-2.86632 -4.37271,-6.50956 -4.37271,-10.93315 0,-4.60911 1.50304,-8.23201 4.51591,-10.86788 z m 10.44087,31.04641 c 3.57717,0 6.91624,-0.89388 10.02148,-2.68163 3.10267,-1.78686 5.54789,-4.2109 7.33817,-7.26869 1.78433,-3.05439 2.67821,-6.36974 2.67821,-9.94775 0,-3.57461 -0.89388,-6.86539 -2.67821,-9.87827 -1.79028,-3.00949 -4.2355,-5.38269 -7.33817,-7.12552 -3.10524,-1.73944 -6.44431,-2.6096 -10.02148,-2.6096 -3.48227,0 -6.75271,0.87016 -9.80711,2.6096 -3.05441,1.74283 -5.45471,4.14227 -7.19413,7.19754 -1.74283,3.05779 -2.61299,6.32738 -2.61299,9.80625 0,5.36234 1.9284,10.01977 5.78429,13.97058 3.85847,3.95164 8.46759,5.92749 13.82994,5.92749 z m -56.58469,60.39485 c -3.9542,0 -8.84461,-2.30118 -14.6789,-6.91371 -2.53758,-1.69453 -5.07767,-2.54009 -7.61863,-2.54009 4.3253,-3.47973 7.61863,-5.22172 9.87828,-5.22172 2.34947,0 5.31492,1.46154 8.88953,4.37529 2.8214,1.88348 5.64617,2.82225 8.46758,2.82225 1.2226,0 3.15013,-0.65748 5.78346,-1.97582 -2.25376,6.30365 -5.83429,9.4538 -10.72132,9.4538 z m -50.23868,69.99269 c 0,5.92746 -1.17771,10.09094 -3.52973,12.48787 -2.35198,2.4003 -6.2079,3.83471 -11.57026,4.3041 1.97582,-1.78435 3.47887,-3.45516 4.51593,-5.00904 1.0345,-1.55133 1.55135,-3.92791 1.55135,-7.12635 v -64.20587 c 0,-10.72385 -4.98531,-18.25012 -14.95679,-22.5788 0.5651,0 1.64453,-0.0924 3.24673,-0.28044 1.59879,-0.18811 2.62991,-0.28383 3.10521,-0.28383 6.11218,0 10.58406,1.83517 13.40547,5.50213 2.82138,3.67036 4.23209,9.55039 4.23209,17.64094 z m 49.10926,-101.17634 c -5.45809,0 -10.11466,1.57508 -13.97059,4.7252 -3.8593,3.15353 -9.40972,8.82089 -16.65131,17.00465 v -21.72985 h -6.91709 l -45.43807,14.53231 v 4.79723 c 13.45377,4.04739 20.18191,11.48046 20.18191,22.29751 V 305.583 c 0,8.65567 -5.45809,12.98095 -16.37089,12.98095 h -3.81102 v 7.76266 h 75.77953 v -7.76266 c -7.15009,0 -12.15912,-0.25672 -15.0288,-0.7744 -2.87224,-0.51683 -4.98872,-1.8106 -6.35113,-3.87963 -1.36326,-2.07072 -2.04444,-5.55299 -2.04444,-10.4434 v -68.16007 c 2.25627,-2.44519 4.25327,-4.34902 5.99527,-5.71227 1.73941,-1.36239 3.50342,-2.04701 5.2937,-2.04701 0.93877,0 1.80806,0.23641 2.60958,0.70494 0.79813,0.47277 1.71571,1.13026 2.75276,1.97582 1.03368,0.84643 2.02329,1.64711 2.96205,2.40031 1.59881,1.22262 3.57463,2.21222 5.92665,2.96206 2.35285,0.7532 4.51678,1.12685 6.4926,1.12685 4.42017,0 8.08801,-1.76063 11.00513,-5.29032 2.91714,-3.52719 4.37614,-7.92363 4.37614,-13.19364 0,-5.08106 -1.62336,-9.28944 -4.86923,-12.63106 -3.24589,-3.3357 -7.22126,-5.00649 -11.92275,-5.00649 z M 310.91988,325.4802 c -6.86881,0 -11.48047,-2.70448 -13.82994,-8.11427 -2.35201,-5.41064 -3.52972,-13.61813 -3.52972,-24.62327 v -55.74168 c 0,-9.87826 -0.61257,-16.60389 -1.83262,-20.1785 -1.22516,-3.5746 -3.67038,-6.30027 -7.33736,-8.18629 6.76967,0.75576 11.54656,2.98831 14.32306,6.70357 2.77395,3.71868 4.16093,10.468 4.16093,20.25054 v 64.77098 c 0,7.81011 1.17684,13.54864 3.5297,17.21646 2.34947,3.67035 6.34856,5.92749 11.99476,6.77305 -1.88348,0.75322 -4.37612,1.12941 -7.47881,1.12941 z m -22.01369,-21.44856 c -6.21132,6.01982 -12.27859,9.03017 -18.20522,9.03017 -3.76356,0 -7.05772,-1.41156 -9.87913,-4.23548 -2.82141,-2.82225 -4.23208,-6.81797 -4.23208,-11.99223 0,-7.71436 2.3732,-14.2993 7.12548,-19.75656 4.74979,-5.45554 13.14535,-11.57027 25.19095,-18.34333 z m -38.10327,21.1647 c -5.92664,0 -11.40847,-1.90633 -16.44207,-5.7148 -5.03022,-3.81099 -7.54743,-8.58111 -7.54743,-14.32303 0,-6.30027 2.09274,-11.75836 6.27993,-16.36751 4.18466,-4.60912 10.09093,-9.12507 17.70957,-13.5461 -4.98531,5.26663 -8.72431,10.04013 -11.21781,14.32051 -2.49267,4.28292 -3.73899,8.82005 -3.73899,13.61728 0,6.58749 2.56128,11.61855 7.69063,15.10082 5.12597,3.48143 11.97104,5.22172 20.53096,5.22172 -3.10521,1.12939 -7.52879,1.69111 -13.26479,1.69111 z m -7.75927,-92.71128 c 1.78433,1.60218 4.37275,2.25965 7.75927,1.97582 -2.63332,2.63585 -6.20793,3.95081 -10.72471,3.95081 -2.63331,0 -4.91668,-0.82184 -6.84166,-2.46895 -1.93094,-1.64368 -2.89343,-3.40684 -2.89343,-5.29032 0,-4.23547 1.78181,-8.04649 5.36234,-11.43301 3.57209,-3.38653 8.69804,-6.77305 15.37875,-10.15874 -3.94826,4.32784 -6.7256,7.64575 -8.32439,9.94947 -1.59965,2.30456 -2.4003,4.91752 -2.4003,7.83126 0,2.16394 0.89385,4.04401 2.68413,5.64366 z m 83.25494,82.55171 c -3.29077,0 -4.93786,-2.86629 -4.93786,-8.60821 v -71.68385 c 0,-7.33816 -1.88348,-13.59439 -5.64617,-18.76779 -3.76356,-5.17426 -8.81751,-9.03272 -15.16948,-11.57366 -6.34856,-2.54013 -13.19277,-3.80762 -20.53096,-3.80762 -10.06637,0 -19.26091,1.47933 -27.58784,4.44475 -8.3278,2.96204 -14.86444,6.79678 -19.61422,11.49826 -4.75232,4.70742 -7.12806,9.50464 -7.12806,14.39505 0,3.29334 1.41325,6.18675 4.2355,8.67942 2.82138,2.49351 6.63239,3.73983 11.42621,3.73983 4.98618,0 9.1522,-1.57506 12.49127,-4.72859 3.33823,-3.15099 5.00904,-6.74932 5.00904,-10.79674 0,-2.06816 -0.61257,-4.27699 -1.83181,-6.62901 -1.22598,-2.35285 -1.83854,-3.71864 -1.83854,-4.09484 0,-2.16136 1.43527,-4.16345 4.30749,-5.9961 2.86884,-1.83519 6.84169,-2.75277 11.92274,-2.75277 5.83174,0 10.20701,1.64708 13.125,4.94043 2.91375,3.29416 4.37529,8.13628 4.37529,14.53229 v 21.30878 c -6.68323,3.85844 -15.19573,8.49129 -25.54339,13.90195 -10.34768,5.4098 -18.18235,9.87488 -23.4964,13.40206 -5.31406,3.53054 -9.59784,7.57709 -12.84372,12.13878 -3.24335,4.56337 -4.86586,10.08756 -4.86586,16.57932 0,7.24496 2.65705,13.2199 7.9711,17.92222 5.31744,4.70149 12.49125,7.0535 21.52395,7.0535 12.70053,0 25.54087,-5.59536 38.52182,-16.79199 1.41071,5.83429 3.85592,10.1418 7.3382,12.91575 3.47886,2.77055 8.32692,4.16007 14.53483,4.16007 5.36575,0 9.99522,-1.1743 13.89857,-3.52972 3.90421,-2.34947 8.16341,-5.83171 12.7751,-10.44 l -5.22426,-6.06814 c -2.82225,3.10524 -5.22169,4.65657 -7.19754,4.65657 z M 172.76713,299.09123 c 0,4.04655 -0.30504,7.57371 -0.91761,10.58406 -0.61256,3.00949 -2.11901,5.45723 -4.51678,7.33733 -2.3969,1.88346 -5.90289,2.77393 -10.51202,2.68159 3.19504,-2.34947 5.12595,-4.91416 5.78683,-7.69063 0.65494,-2.77396 0.98622,-7.83129 0.98622,-15.16948 v -59.5518 c 0,-7.89993 -1.17771,-13.80282 -3.52717,-17.70704 -2.35202,-3.90335 -6.96368,-7.03315 -13.82994,-9.38517 7.43053,-0.0924 13.07416,0.9896 16.93263,3.24587 3.8593,2.25713 6.42313,5.29032 7.69063,9.10134 1.27005,3.81101 1.90721,8.44386 1.90721,13.89857 z m -85.798475,-1.12687 c 0,7.33733 -0.845564,12.62851 -2.540937,15.871 -1.694534,3.24587 -6.067278,5.10563 -13.124158,5.57502 2.447734,-1.87756 4.115999,-3.8771 5.012423,-5.99612 0.890473,-2.11645 1.338685,-5.15052 1.338685,-9.10134 v -61.52511 c 0,-9.78254 -0.965036,-17.14782 -2.892589,-22.08568 -1.93091,-4.93789 -6.232475,-8.44048 -12.912322,-10.51204 8.090552,-0.84559 14.298461,0.84557 18.627159,5.08106 4.324426,4.23292 6.491739,11.00598 6.491739,20.31915 z M 1.4540392,300.08 c 0,5.83512 -0.84894601,10.35104 -2.540097,13.5461 -1.695374,3.19841 -5.97494,4.84552 -12.8437112,4.93785 2.6333,-2.06818 4.2558142,-4.46507 4.8692232,-7.19753 0.612595,-2.72564 0.917608,-7.85161 0.917608,-15.37788 v -47.97901 c 0,-8.18376 -0.825244,-14.41539 -2.4689432,-18.69918 -1.647081,-4.28038 -5.341162,-7.40935 -11.08054,-9.38517 3.389908,-0.37365 5.598723,-0.56173 6.635776,-0.56173 4.889569,0 8.8649622,1.73944 11.9227472,5.2183 3.05524199,3.48227 4.587937,8.70396 4.587937,15.66512 z M 192.87699,312.92116 c -1.08535,-1.88007 -1.62336,-4.56423 -1.62336,-8.04394 v -64.06523 c 0,-8.84123 -1.62251,-16.32006 -4.86925,-22.43814 -3.24587,-6.1122 -7.83042,-10.60441 -13.76045,-13.47749 -5.92495,-2.8663 -12.88862,-4.30072 -20.88426,-4.30072 -8.6557,0 -16.95636,1.76316 -24.90712,5.29032 -7.95074,3.52718 -15.92181,8.72771 -23.91749,15.5931 -2.07156,-4.42017 -5.033605,-8.20746 -8.892069,-11.3576 -3.859277,-3.15353 -8.208295,-5.52673 -13.050435,-7.1289 -4.848064,-1.59879 -9.809652,-2.39692 -14.888168,-2.39692 -7.528818,0 -15.219451,1.64707 -23.074466,4.93787 -7.855015,3.29333 -15.545647,8.09054 -23.071923,14.39167 v -19.32954 h -4.656573 l -45.722743,14.53231 v 4.79723 c 7.338192,2.82479 12.111695,5.97832 14.326435,9.45719 2.206297,3.47889 3.314506,8.60824 3.314506,15.38129 v 57.57344 c 0,3.95167 -0.376168,7.12552 -1.129393,9.52582 -0.753225,2.39693 -2.376579,4.11603 -4.869249,5.1497 -2.49267,1.03451 -6.043551,1.55133 -10.652672,1.55133 h -1.83519 v 7.76266 h 69.430961 v -7.76266 c -6.211316,0 -10.796735,-0.89385 -13.761318,-2.68075 -2.96204,-1.78432 -4.444764,-5.45216 -4.444764,-11.00598 v -75.3542 c 4.800613,-4.98617 10.419704,-9.12593 16.864014,-12.41925 6.444311,-3.29078 12.063377,-4.93786 16.86399,-4.93786 12.980958,0 19.472722,9.36144 19.472722,28.08096 v 62.09023 c 0,6.21132 -1.12685,10.53577 -3.386525,12.98099 -2.256268,2.45114 -7.105173,3.52969 -14.535702,3.24586 v 7.76266 h 67.877062 v -7.76266 c -1.2226,-0.0924 -2.35286,-0.16097 -3.38653,-0.20927 -1.03703,-0.0475 -2.30456,-0.0711 -3.81098,-0.0711 -3.76356,-0.0932 -6.44431,-1.55475 -8.0431,-4.37359 -1.59966,-2.82395 -2.39777,-6.77559 -2.39777,-11.8541 v -72.5328 c 12.41669,-11.57028 23.79803,-17.35711 34.14909,-17.35711 7.52625,0 12.63187,2.70532 15.30925,8.11174 2.68413,5.41317 4.02366,13.00806 4.02366,22.79147 v 60.67868 c 0,5.45471 -1.15396,9.29283 -3.45853,11.50165 -2.30713,2.21135 -6.091,3.3145 -11.35763,3.3145 h -3.3899 v 7.76266 h 68.44474 v -7.76266 c -4.61252,0 -8.20832,-0.46939 -10.79926,-1.4073 -2.58587,-0.94217 -4.42103,-2.35541 -5.49961,-4.23549 z M -80.183474,213.71725 c 2.77393,-2.06816 6.656122,-3.24588 11.642275,-3.52716 l -62.795151,93.27643 c -2.63331,4.04401 -4.63285,6.91368 -5.99611,8.60567 -1.36578,1.69453 -3.29672,3.17726 -5.78682,4.44731 -2.49522,1.27005 -5.6699,1.95212 -9.52582,2.04445 l 60.394846,-89.88735 c 5.27,-7.90245 9.29028,-12.88779 12.06678,-14.95935 z m 12.207417,93.98219 c 4.044004,-3.57544 7.481364,-7.76264 10.299366,-12.55988 l -5.783449,23.42439 h -20.181874 c 6.3994,-3.66697 11.621087,-7.28732 15.665957,-10.86451 z m -71.616063,-92.71212 c -2.68076,1.79026 -5.2217,3.87963 -7.62201,6.27993 -2.39692,2.4003 -4.72521,4.77604 -6.98486,7.12552 l 6.63494,-23.42439 c 2.91459,2.44775 5.47927,3.93048 7.68809,4.44476 2.21139,0.52023 5.52673,0.77695 9.95031,0.77695 -3.76356,1.4107 -6.98573,3.01288 -9.66647,4.79723 z m 7.90246,-12.77172 c -3.81017,-0.51428 -7.36106,-1.99701 -10.65524,-4.44476 h -7.75924 l -11.85411,41.34661 h 7.75926 c 9.78593,-10.91279 18.39415,-18.36702 25.82722,-22.36699 7.42799,-3.99571 16.36751,-5.99525 26.81091,-5.99525 h 16.227696 l -76.625086,113.59558 v 1.97582 h 108.657686 l 9.597841,-47.69773 h -8.468424 c -5.642793,8.84378 -10.65524,15.87439 -15.027985,21.09864 -4.376126,5.2217 -9.879132,9.66646 -16.511522,13.33429 -6.63239,3.66695 -14.32305,5.50214 -23.071926,5.50214 h -12.13455 L -43.702723,206.0978 v -3.10524 h -69.430957 c -8.56079,0 -14.74497,-0.25673 -18.55598,-0.77696 z m -71.47458,96.45115 c -3.76356,8.37522 -9.17333,14.48995 -16.23024,18.34587 4.2355,-5.73599 7.40935,-12.0634 9.52583,-18.97962 2.11647,-6.91371 3.17387,-15.4982 3.17387,-25.75268 0,-16.1794 -1.43443,-29.07141 -4.30413,-38.66587 -2.86884,-9.59697 -7.59489,-17.68582 -14.17899,-24.26995 18.43567,9.12507 27.65648,28.64611 27.65648,58.56223 0,12.1354 -1.88265,22.38734 -5.64282,30.76002 z m -34.57354,23.28373 c -9.31401,0 -16.88771,-5.71481 -22.71946,-17.14444 -5.83428,-11.42962 -8.74886,-27.16421 -8.74886,-47.20208 0,-16.37002 2.49009,-28.6698 7.47881,-36.90183 4.98531,-8.22866 11.94646,-12.34723 20.88427,-12.34723 9.22081,0 16.44205,5.48182 21.66038,16.43953 5.22169,10.96023 7.83467,26.22459 7.83467,45.7939 0,11.0975 -1.20228,20.48353 -3.5992,28.14959 -2.4003,7.67029 -5.62245,13.45374 -9.66645,17.3571 -4.04655,3.90675 -8.42267,5.85546 -13.12416,5.85546 z m -35.98427,-6.34856 c -5.64618,-3.76272 -10.37138,-8.13885 -14.1824,-13.12417 -3.81101,-4.98617 -6.70441,-10.58405 -8.67685,-16.79196 -1.97582,-6.20878 -2.96544,-12.51246 -2.96544,-18.90848 0,-8.75141 1.50307,-17.05207 4.51594,-24.90708 3.01033,-7.85501 7.71181,-14.83988 14.11122,-20.95544 6.39687,-6.11558 14.34677,-10.86535 23.84887,-14.25188 -7.14925,5.36235 -13.10043,10.56033 -17.85021,15.59394 -4.75232,5.03276 -8.58705,11.02886 -11.50164,17.99002 -2.91715,6.96452 -4.37529,15.05253 -4.37529,24.27079 0,12.1354 3.05779,23.28374 9.17336,33.4467 6.1147,10.15619 15.28552,18.95589 27.5192,26.38643 -7.43391,-2.06819 -13.97397,-4.98532 -19.61676,-8.74887 z m 65.96987,-106.68187 c -9.64274,-5.55046 -20.2988,-8.32441 -31.96145,-8.32441 -11.94728,0 -22.8389,2.84513 -32.66973,8.53621 -9.83,5.69109 -17.59011,13.52492 -23.28374,23.49639 -5.69109,9.97148 -8.53622,20.97662 -8.53622,33.01884 0,12.60818 2.84513,23.77768 8.53622,33.51531 5.69363,9.73511 13.40882,17.28595 23.14395,22.64743 9.73763,5.36237 20.48604,8.04651 32.24441,8.04651 8.74887,0 16.93601,-1.60473 24.55464,-4.79978 7.622,-3.19589 14.37133,-7.73892 20.25052,-13.61811 5.87917,-5.87663 10.48832,-12.88862 13.82992,-21.02406 3.33824,-8.1363 5.00905,-16.77165 5.00905,-25.89672 0,-11.9439 -2.7765,-22.81179 -8.32693,-32.59774 -5.55045,-9.78 -13.14534,-17.44691 -22.79064,-22.99987 z m -146.97108,111.19864 c -4.13976,-1.22261 -8.88869,-3.97284 -14.25104,-8.25577 -5.36235,-4.28292 -11.19663,-10.41967 -17.50028,-18.41535 -6.86626,-8.93695 -13.68676,-17.73328 -20.45981,-26.38894 -6.77305,-8.65315 -12.39804,-15.52193 -16.86399,-20.60299 -4.46849,-5.07851 -8.39556,-8.88952 -11.78209,-11.43048 h 11.57028 c 2.44435,1.50645 4.34902,3.08151 5.71482,4.72859 1.36325,1.64708 2.51636,3.12643 3.45854,4.44476 6.96113,7.43392 13.70962,15.33384 20.24967,23.70822 6.53665,8.37268 12.8886,16.34378 19.05162,23.91495 6.16048,7.57456 11.92359,13.82992 17.28509,18.77119 5.36234,4.94041 10.95772,8.81751 16.79198,11.64144 -4.70403,-0.18808 -9.12507,-0.89386 -13.26479,-2.11562 z m -106.11763,-92.85534 v -63.64159 c 0,-7.43053 0.58632,-13.09705 1.76401,-17.00378 1.17433,-3.90422 3.61952,-6.81796 7.33819,-8.74887 3.71527,-1.92499 9.19368,-2.89343 16.43867,-2.89343 7.15008,0 13.02925,0.47194 17.63839,1.41409 4.60913,0.93792 9.0327,2.86886 13.2648,5.78345 11.94731,8.2795 17.92225,21.21555 17.92225,38.80565 0,14.86698 -3.8593,25.91704 -11.57029,33.16286 -3.8593,3.76272 -9.55039,6.89253 -17.07327,9.38179 -7.52966,2.49605 -15.14827,3.73983 -22.86264,3.73983 z m 79.44737,-77.54013 c 6.01982,7.66691 9.03269,17.99338 9.03269,30.97436 0,13.36141 -3.38652,23.94205 -10.16296,31.74878 -6.77304,7.81094 -16.46325,12.51242 -29.06718,14.11463 9.97064,-3.85931 17.42572,-8.98528 22.36616,-15.3813 4.93786,-6.3994 7.40934,-15.99386 7.40934,-28.79011 0,-12.1354 -2.09529,-21.84592 -6.27908,-29.1392 -4.18805,-7.28988 -10.51546,-13.09789 -18.98301,-17.42573 11.10088,1.59879 19.66418,6.23164 25.68404,13.89857 z m -101.03911,154.5897 c 0,9.22081 -6.16299,13.97059 -18.48651,14.25103 6.49177,-3.29078 9.73764,-9.36144 9.73764,-18.20267 V 161.08166 c 0,-8.18376 -0.63375,-14.0392 -1.9038,-17.56976 -1.27005,-3.52632 -4.35495,-6.36891 -9.24537,-8.53622 5.92748,-0.28129 10.32393,0.47194 13.19701,2.25967 2.86632,1.78771 4.70149,4.54049 5.50216,8.25237 0.79812,3.71865 1.19887,9.20046 1.19887,16.4395 z m 146.68983,3.38652 c -3.05778,-2.82222 -6.1393,-5.99609 -9.242,-9.52579 -3.10607,-3.52719 -6.91709,-8.0194 -11.43045,-13.47494 -1.79028,-1.97499 -3.2459,-3.59834 -4.37529,-4.86839 -1.13026,-1.27091 -2.07157,-2.33167 -2.82141,-3.17726 l -13.97059,-16.50814 c -9.50548,-11.85411 -17.49774,-21.02747 -23.9895,-27.51668 8.65315,-1.41069 16.25057,-3.78726 22.79063,-7.12549 6.53665,-3.34165 12.11167,-7.36192 16.71995,-12.06679 4.60915,-4.70487 8.1363,-9.95031 10.58407,-15.73373 2.44521,-5.78683 3.67035,-11.73464 3.67035,-17.85021 0,-9.31656 -2.65957,-17.9934 -7.97447,-26.0365 -5.31404,-8.04397 -13.21652,-14.48828 -23.70821,-19.33294 -10.48832,-4.84552 -22.74318,-7.26617 -36.75866,-7.26617 h -111.33847 v 7.75927 c 9.6868,0.28383 16.71995,1.17771 21.0961,2.68075 4.37275,1.50645 7.26615,4.09484 8.67685,7.76266 1.41071,3.67038 2.11648,9.26909 2.11648,16.79199 v 131.79826 c 0,7.05771 -0.8227,12.23113 -2.46894,15.5253 -1.64708,3.29078 -4.68114,5.57415 -9.10134,6.84422 -4.42442,1.2709 -11.19746,1.99955 -20.31915,2.18509 v 7.76266 h 97.78983 v -7.76266 c -1.97584,0.0957 -4.93788,-0.0924 -8.88952,-0.56173 -3.95081,-0.4694 -7.28988,-1.08197 -10.01892,-1.83519 -5.08106,-1.50388 -8.37525,-3.95164 -9.8783,-7.3407 -1.50645,-3.38399 -2.25713,-8.04057 -2.25713,-13.96805 v -59.83312 h 15.66258 c 3.29078,0 7.17381,2.28424 11.6423,6.84507 4.46849,4.56423 11.26524,12.77169 20.39371,24.62325 l 19.75401,25.11893 c 6.30027,7.99564 11.92612,14.4425 16.86399,19.32953 4.93702,4.89635 10.0901,8.68364 15.45244,11.36101 5.36237,2.68413 11.05346,4.02366 17.07328,4.02366 h 26.52961 v -7.76266 c -3.29332,-0.93876 -6.3994,-2.27744 -9.31315,-4.02027 -2.91713,-1.73945 -5.90376,-4.02283 -8.96068,-6.84424 z"
       style="fill:#cc9933;fill-rule:evenodd;stroke-width:0.254304"
       id="path9" />
    <path
       d="m 745.87265,330.33674 c -21.62224,-3.08746 -23.30238,21.1859 -15.88625,26.4381 0,0 -6.48667,-17.9163 10.19516,-19.77268 16.67845,-1.85297 29.65348,30.58378 0,51.27913 -29.65686,20.69873 -79.08216,-3.08744 -102.86832,-14.20951 -23.78616,-11.11952 -70.58749,-37.8135 -115.4638,-37.7271 -62.14364,0.11356 -65.87413,61.27432 -41.46016,54.40809 9.88167,-2.77904 7.10432,-12.3557 7.10432,-12.3557 0,0 -9.88672,1.54457 -9.88672,-4.63368 0,-6.17745 4.63538,-29.34509 47.88326,-27.79968 56.71262,2.02327 89.41796,37.82198 90.27879,66.41129 0.8244,27.55819 -21.78408,29.99495 -30.00341,21.08423 -8.22609,-8.91918 5.67247,-26.8736 18.88134,-14.48148 0,0 -8.80563,-13.78164 -22.24076,-3.35942 -13.44186,10.42817 -0.93029,33.94236 22.00776,28.61305 20.06498,-4.65912 20.18445,-28.38002 16.71996,-41.84818 3.81355,6.5663 8.19309,13.1843 12.58956,17.87138 12.27857,13.08859 26.4042,19.87942 42.11169,17.53927 18.06794,-2.68754 15.5753,-23.68194 4.68622,-22.86941 0,0 9.2335,11.53213 -3.24843,15.33721 -10.27649,3.13236 -27.06253,-2.4181 -40.98228,-18.15521 -10.45782,-11.82192 -16.13111,-30.05766 -16.13111,-30.05766 0,0 48.05358,27.51077 87.77427,27.19133 26.49657,-0.21519 49.86503,-12.76575 57.26845,-30.53293 9.2657,-22.2433 2.29272,-45.28217 -19.32954,-48.37044 z m -1026.10678,6.00794 c -44.87635,-0.0864 -91.67765,26.60758 -115.46381,37.7271 -23.78362,11.12207 -73.2089,34.90824 -102.8658,14.20951 -29.65603,-20.69535 -16.68096,-53.1321 0,-51.27913 16.68183,1.85638 10.19518,19.77268 10.19518,19.77268 7.41273,-5.2522 5.736,-29.52556 -15.88881,-26.4381 -21.62223,3.08827 -28.59608,26.12714 -19.32697,48.37044 7.40339,17.76718 30.77186,30.31774 57.26588,30.53293 39.72326,0.31944 87.77684,-27.19133 87.77684,-27.19133 0,0 -5.67331,18.23574 -16.13113,30.05766 -13.92311,15.73711 -30.70577,21.28757 -40.98482,18.15521 -12.48194,-3.80508 -3.24928,-15.33721 -3.24928,-15.33721 -10.88567,-0.81253 -13.38172,20.18187 4.68709,22.86941 15.70662,2.34015 29.83564,-4.45068 42.11423,-17.53927 4.39647,-4.68708 8.7726,-11.30508 12.58616,-17.87138 -3.46109,13.46816 -3.34162,37.18906 16.72078,41.84818 22.93722,5.32931 35.44627,-18.18488 22.01031,-28.61305 -13.43764,-10.42222 -22.24075,3.35942 -22.24075,3.35942 13.2055,-12.39212 27.10745,5.5623 18.88133,14.48148 -8.21933,8.91072 -30.83119,6.47396 -30.00341,-21.08423 0.86083,-28.58931 33.56362,-64.38802 90.27882,-66.41129 43.24787,-1.54541 47.88071,21.62223 47.88071,27.79968 0,6.17825 -9.88505,4.63368 -9.88505,4.63368 0,0 -2.77903,9.57666 7.10517,12.3557 24.414,6.86623 20.68093,-54.29453 -41.46267,-54.40809 z m 715.93858,53.60149 c -2.86632,7.73216 -4.93789,13.5461 -6.20539,17.44014 h -0.27198 c -0.84557,-2.95866 -2.85442,-8.67942 -6.02575,-17.16816 l -10.41629,-27.63021 h -4.621 l 18.84237,49.24059 c -0.36179,0.99469 -1.16924,3.1442 -2.42148,6.45278 -1.25482,3.30604 -2.3554,5.72074 -3.30859,7.24837 -0.95063,1.52169 -2.0148,2.64853 -3.19248,3.37465 -1.18026,0.72358 -2.53758,1.08789 -4.07621,1.08789 -2.02413,0 -3.91267,-0.24232 -5.66483,-0.72612 v 3.89404 c 2.11393,0.63376 4.03553,0.95403 5.75379,0.95403 2.29609,0 4.25073,-0.40923 5.86732,-1.22259 1.61404,-0.81933 3.02814,-2.04192 4.23547,-3.67036 1.20736,-1.63185 2.70194,-4.77351 4.48375,-9.42161 l 22.06114,-57.21167 h -4.62016 z m -44.34423,-26.1119 c -2.2961,1.46492 -4.45664,4.00839 -6.47738,7.63387 h -0.32026 l -0.45073,-8.8802 h -3.80509 v 49.24059 h 4.48375 v -27.17864 c 0,-5.43691 1.34461,-9.93588 4.03129,-13.50119 2.68752,-3.56021 6.13083,-5.34454 10.32734,-5.34454 2.20289,0 4.33376,0.25672 6.38753,0.771 l 0.86082,-4.30073 c -2.38505,-0.42448 -4.62097,-0.63713 -6.70104,-0.63713 -3.2645,0 -6.04438,0.73288 -8.33623,2.19697 z m -59.83991,19.99633 c 0.48463,-5.88512 2.16139,-10.39257 5.03106,-13.519 2.86632,-3.12641 6.67138,-4.68705 11.41185,-4.68705 4.37867,0 7.8067,1.60809 10.28156,4.82431 2.47826,3.21624 3.71868,7.6754 3.71868,13.38174 z m 16.44291,-22.1933 c -6.55193,0 -11.76177,2.36473 -15.62614,7.08991 -3.86525,4.72605 -5.7987,11.01447 -5.7987,18.86357 0,7.94143 1.99954,14.11968 6.00118,18.52887 4.00251,4.40832 9.58259,6.6112 16.73521,6.6112 2.8426,0 5.44032,-0.21773 7.79571,-0.65409 2.3554,-0.43972 4.92009,-1.26158 7.6991,-2.46892 v -4.07706 c -3.26367,1.29973 -5.95627,2.14274 -8.0846,2.53757 -2.13089,0.39143 -4.59727,0.58547 -7.41021,0.58547 -5.76564,0 -10.1977,-1.78095 -13.29189,-5.34371 -3.09594,-3.56022 -4.671,-8.72517 -4.73455,-15.49226 h 35.46742 v -3.61956 c 0,-6.94925 -1.67419,-12.44632 -5.02768,-16.49033 -3.35008,-4.04655 -7.92616,-6.07066 -13.72485,-6.07066 z m -39.5411,50.19123 h 4.48291 v -70.48327 h -4.48291 z m -20.97409,0 h 4.48375 v -70.48327 h -4.48375 z m -20.38438,-20.20308 c 0,5.34456 -1.51576,9.51735 -4.55236,12.52091 -3.03406,3.00693 -7.17973,4.50746 -12.43364,4.50746 -3.44074,0 -6.10962,-0.85151 -7.99565,-2.55536 -1.88941,-1.70979 -2.83072,-4.10076 -2.83072,-7.18228 0,-3.86522 1.47085,-6.71036 4.41425,-8.53705 2.94764,-1.82587 7.8762,-2.90783 14.79245,-3.23995 l 8.60567,-0.3618 z M 255.37647,361.7271 c -5.28441,0 -10.62813,1.27007 -16.03537,3.80508 l 1.67674,3.89742 c 4.88956,-2.53755 9.61816,-3.80505 14.17985,-3.80505 4.22617,0 7.28988,1.19294 9.19368,3.57798 1.90383,2.38505 2.85443,5.91816 2.85443,10.59932 v 3.26367 l -9.37923,0.26857 c -7.57963,0.15251 -13.36646,1.55729 -17.36896,4.21515 -4.00248,2.65365 -6.00203,6.38418 -6.00203,11.18733 0,4.37867 1.34207,7.80416 4.03213,10.2824 2.68754,2.47487 6.44769,3.71188 11.27799,3.71188 3.56273,0 6.65019,-0.65409 9.26231,-1.96989 2.61211,-1.31155 5.15645,-3.55342 7.63387,-6.72475 h 0.36177 l 1.1328,7.79232 h 3.30604 v -32.75025 c 0,-5.95121 -1.33615,-10.32734 -4.00843,-13.13687 -2.67228,-2.80953 -6.71288,-4.21431 -12.11759,-4.21431 z m -37.82198,16.03622 c 0,3.95418 -1.09385,6.97556 -3.28231,9.05897 -2.19358,2.08345 -5.34119,3.12388 -9.44788,3.12388 -3.86439,0 -6.95267,-1.04639 -9.25977,-3.1442 -2.31389,-2.10124 -3.46702,-5.0514 -3.46702,-8.85649 0,-4.01774 1.12686,-7.15008 3.37127,-9.40043 2.25035,-2.25034 5.34117,-3.37465 9.2657,-3.37465 4.04741,0 7.19499,1.04891 9.44533,3.14758 2.2478,2.09784 3.37468,5.24883 3.37468,9.44534 z m -15.67445,31.75132 h 8.06427 c 4.52866,0 7.80757,0.66679 9.82746,1.99362 2.02411,1.33019 3.03746,3.47377 3.03746,6.43584 0,8.24052 -6.46211,12.3616 -19.38717,12.3616 -10.05704,0 -15.08472,-3.38312 -15.08472,-10.14432 0,-7.09585 4.51338,-10.64674 13.5427,-10.64674 z m 3.0366,-47.87734 c -5.31744,0 -9.53429,1.48865 -12.66069,4.46254 -3.12642,2.97392 -4.68709,6.92301 -4.68709,11.84564 0,3.26112 0.79814,6.15114 2.40031,8.67347 1.59879,2.52316 3.83473,4.3702 6.70444,5.55129 -4.19652,2.50452 -6.29776,5.40387 -6.29776,8.69466 0,1.51237 0.44483,2.84851 1.33615,4.0084 0.89047,1.16245 2.07664,2.06226 3.55682,2.69601 -3.59579,0.81253 -6.44176,2.34016 -8.5396,4.5727 -2.09867,2.23593 -3.14758,5.04548 -3.14758,8.42606 0,4.25581 1.69792,7.57966 5.09629,9.96557 3.3984,2.38504 8.18968,3.58053 14.3832,3.58053 7.78892,0 13.79097,-1.41408 18.00187,-4.23547 4.21515,-2.82733 6.31891,-6.83322 6.31891,-12.0278 0,-4.22957 -1.41662,-7.42122 -4.2558,-9.58258 -2.84003,-2.1546 -6.93149,-3.23656 -12.27606,-3.23656 h -8.60821 c -2.807,0 -4.80654,-0.36181 -6.00205,-1.08876 -1.18957,-0.72271 -1.78688,-1.87074 -1.78688,-3.4399 0,-1.42002 0.46854,-2.76463 1.40137,-4.03213 0.93877,-1.27005 2.29526,-2.37066 4.08046,-3.30604 0.90232,0.17962 2.47486,0.26944 4.70995,0.26944 5.31489,0 9.55038,-1.47085 12.70646,-4.41511 3.1535,-2.94424 4.73452,-6.78745 4.73452,-11.52792 0,-4.044 -1.35988,-7.76011 -4.07704,-11.14325 l 10.19261,-0.63375 v -3.1264 h -15.76679 c -1.77841,-0.63378 -4.28634,-0.95064 -7.51781,-0.95064 z m -59.97291,16.12602 c 0,3.95418 -1.09466,6.97556 -3.28232,9.05897 -2.19357,2.08345 -5.34115,3.12388 -9.44788,3.12388 -3.86522,0 -6.95266,-1.04639 -9.26315,-3.1442 -2.31051,-2.10124 -3.46447,-5.0514 -3.46447,-8.85649 0,-4.01774 1.12431,-7.15008 3.37465,-9.40043 2.2478,-2.25034 5.33865,-3.37465 9.26318,-3.37465 4.04655,0 7.19413,1.04891 9.44534,3.14758 2.24779,2.09784 3.37465,5.24883 3.37465,9.44534 z m -15.67189,31.75132 h 8.06174 c 4.52779,0 7.80672,0.66679 9.82746,1.99362 2.02327,1.33019 3.03659,3.47377 3.03659,6.43584 0,8.24052 -6.46211,12.3616 -19.3863,12.3616 -10.05791,0 -15.08559,-3.38312 -15.08559,-10.14432 0,-7.09585 4.51678,-10.64674 13.5461,-10.64674 z m 3.03406,-47.87734 c -5.31744,0 -9.53514,1.48865 -12.66155,4.46254 -3.12643,2.97392 -4.68962,6.92301 -4.68962,11.84564 0,3.26112 0.8015,6.15114 2.40369,8.67347 1.59879,2.52316 3.83133,4.3702 6.70104,5.55129 -4.19652,2.50452 -6.29519,5.40387 -6.29519,8.69466 0,1.51237 0.44565,2.84851 1.33614,4.0084 0.89132,1.16245 2.07749,2.06226 3.55681,2.69601 -3.59579,0.81253 -6.44091,2.34016 -8.53874,4.5727 -2.09867,2.23593 -3.1476,5.04548 -3.1476,8.42606 0,4.25581 1.69791,7.57966 5.09631,9.96557 3.395,2.38504 8.18969,3.58053 14.38236,3.58053 7.78976,0 13.79095,-1.41408 18.00272,-4.23547 4.21428,-2.82733 6.31891,-6.83322 6.31891,-12.0278 0,-4.22957 -1.41663,-7.42122 -4.25922,-9.58258 -2.83665,-2.1546 -6.92894,-3.23656 -12.27265,-3.23656 h -8.60569 c -2.80953,0 -4.80908,-0.36181 -6.00203,-1.08876 -1.19551,-0.72271 -1.79028,-1.87074 -1.79028,-3.4399 0,-1.42002 0.46685,-2.76463 1.40478,-4.03213 0.93622,-1.27005 2.29269,-2.37066 4.07704,-3.30604 0.90573,0.17962 2.47487,0.26944 4.71079,0.26944 5.31406,0 9.54956,-1.47085 12.70647,-4.41511 3.15269,-2.94424 4.73452,-6.78745 4.73452,-11.52792 0,-4.044 -1.36072,-7.76011 -4.07705,-11.14325 l 10.19178,-0.63375 v -3.1264 h -15.76679 c -1.77841,-0.63378 -4.28547,-0.95064 -7.51695,-0.95064 z m -47.834976,0 c -8.184594,0 -13.87484,2.56807 -17.076663,7.70251 h -0.271979 l -0.860822,-6.75187 h -3.805059 v 49.24059 h 4.483723 v -27.17864 c 0,-6.67475 1.369176,-11.49909 4.100765,-14.47299 2.732453,-2.97391 7.045029,-4.46256 12.933531,-4.46256 4.378669,0 7.610145,1.12687 9.692722,3.37467 2.083443,2.25034 3.12388,5.85207 3.12388,10.8018 v 31.93772 h 4.441378 v -32.2097 c 0,-11.98543 -5.586029,-17.98153 -16.761476,-17.98153 z m -42.987771,50.19123 h 4.483749 v -49.24059 h -4.483749 z m 2.220691,-67.26706 c -1.901259,0 -2.854444,1.44969 -2.854444,4.34902 0,2.92646 0.953185,4.39393 2.854444,4.39393 0.935383,0 1.668264,-0.39142 2.196964,-1.17768 0.528699,-0.78626 0.792184,-1.85892 0.792184,-3.21625 0,-1.38949 -0.263485,-2.45961 -0.792184,-3.21621 -0.5287,-0.75577 -1.261581,-1.13281 -2.196964,-1.13281 z m -23.191395,43.34872 c 0,7.42798 -1.299701,12.75729 -3.894881,15.98876 -2.600265,3.23064 -6.6739218,4.84466 -12.2302768,4.84466 -10.844189,0 -16.2632952,-6.97298 -16.2632952,-20.92576 0,-7.18569 1.353943,-12.66751 4.0558552,-16.44208 2.701937,-3.77203 6.740016,-5.66143 12.11762,-5.66143 5.7055038,0 9.8367608,1.67081 12.3895728,5.00649 2.549431,3.33569 3.825405,8.80905 3.825405,16.41835 z m 0,-28.85535 c 0,3.65593 0.08982,7.38307 0.271978,11.19067 h -0.271978 c -2.052926,-3.14081 -4.37867,-5.35896 -6.976393,-6.6595 -2.596858,-1.2997 -5.6783698,-1.94871 -9.2385848,-1.94871 -6.796777,0 -11.973582,2.25118 -15.5397232,6.74932 -3.562757,4.49814 -5.344544,11.00852 -5.344544,19.52357 0,8.09479 1.797045,14.25187 5.389454,18.47802 3.5957932,4.22958 8.7878562,6.34264 15.5846332,6.34264 7.0060438,0 12.3802408,-2.80615 16.1251578,-8.42267 h 0.361799 l 1.1328,7.52035 h 2.944239 V 341.34526 H 20.512449 Z M -34.7056,387.91019 c 0,7.42798 -1.297158,12.75729 -3.894881,15.98876 -2.596882,3.23064 -6.673922,4.84466 -12.230301,4.84466 -10.841621,0 -16.260727,-6.97298 -16.260727,-20.92576 0,-7.18569 1.351375,-12.66751 4.053312,-16.44208 2.701937,-3.77203 6.743398,-5.66143 12.117619,-5.66143 5.705479,0 9.836761,1.67081 12.388709,5.00649 2.550295,3.33569 3.826269,8.80905 3.826269,16.41835 z m 0,-28.85535 c 0,3.65593 0.08982,7.38307 0.271978,11.19067 H -34.7056 c -2.053765,-3.14081 -4.37867,-5.35896 -6.976392,-6.6595 -2.594341,-1.2997 -5.675853,-1.94871 -9.238586,-1.94871 -6.796777,0 -11.974421,2.25118 -15.537179,6.74932 -3.562758,4.49814 -5.34373,11.00852 -5.34373,19.52357 0,8.09479 1.79623,14.25187 5.38864,18.47802 3.593249,4.22958 8.78783,6.34264 15.582065,6.34264 7.006043,0 12.380265,-2.80615 16.125182,-8.42267 h 0.361774 l 1.1328,7.52035 h 2.946806 v -70.48327 h -4.44138 z m -83.03043,24.77576 c 0.48378,-5.88512 2.16054,-10.39257 5.02767,-13.519 2.86887,-3.12641 6.67392,-4.68705 11.41778,-4.68705 4.378666,0 7.804166,1.60809 10.281556,4.82431 2.47487,3.21624 3.71275,7.6754 3.71275,13.38174 z m 16.44545,-22.1933 c -6.55532,0 -11.76516,2.36473 -15.62952,7.08991 -3.86526,4.72605 -5.79871,11.01447 -5.79871,18.86357 0,7.94143 2.00294,14.11968 6.00459,18.52887 3.9991,4.40832 9.58004,6.6112 16.735206,6.6112 2.84002,0 5.43691,-0.21773 7.79231,-0.65409 2.35539,-0.43972 4.92346,-1.26158 7.69996,-2.46892 v -4.07706 c -3.26112,1.29973 -5.95714,2.14274 -8.08546,2.53757 -2.12835,0.39143 -4.59727,0.58547 -7.40681,0.58547 -5.768186,0 -10.197716,-1.78095 -13.294456,-5.34371 -3.09677,-3.56022 -4.67184,-8.72517 -4.732,-15.49226 h 35.467436 v -3.61956 c 0,-6.94925 -1.67675,-12.44632 -5.02768,-16.49033 -3.35349,-4.04655 -7.92619,-6.07066 -13.724866,-6.07066 z m -47.76721,36.01138 c -0.61849,2.44519 -1.12687,4.7557 -1.51491,6.93148 -0.66679,-3.26367 -1.76994,-7.55 -3.30942,-12.86744 l -13.27074,-46.11078 h -5.12002 l -11.32203,40.18076 c -2.35539,8.36252 -3.89742,14.60095 -4.621,18.70764 -0.21267,-1.21074 -0.44821,-2.40877 -0.70239,-3.60171 -0.25756,-1.19552 -0.54392,-2.43337 -0.86081,-3.71527 -0.31687,-1.28192 -0.67271,-2.65702 -1.06417,-4.12449 -0.39142,-1.46155 -0.81591,-3.05524 -1.2675,-4.77689 l -11.59739,-42.67004 h -4.84807 l 18.20947,66.22659 h 3.89742 c 8.84716,-31.49801 13.71641,-48.95083 14.60689,-52.36363 0.89046,-3.41109 1.57844,-6.43243 2.06222,-9.05981 0.60072,2.68668 1.50984,6.12997 2.7172,10.32647 l 14.54163,51.09697 h 3.80422 l 18.29842,-66.22659 h -4.66504 c -8.69804,32.25034 -13.35548,49.59898 -13.97398,52.04674 z"
       style="fill:#cc9933;fill-rule:evenodd;stroke-width:0.254304"
       id="path11" />
  </g>
</svg>
